Coordinates
version=1
nRows=5
nColumns=40
inDegrees=yes

Units are S.I. units (second, meters, Newtons, ...)
If the header above contains a line with 'inDegrees', this indicates whether rotational values are in degrees (yes) or radians (no).

endheader
time	pelvis_tilt	pelvis_list	pelvis_rotation	pelvis_tx	pelvis_ty	pelvis_tz	hip_flexion_r	hip_adduction_r	hip_rotation_r	knee_angle_r	knee_angle_r_beta	ankle_angle_r	subtalar_angle_r	mtp_angle_r	hip_flexion_l	hip_adduction_l	hip_rotation_l	knee_angle_l	knee_angle_l_beta	ankle_angle_l	subtalar_angle_l	mtp_angle_l	lumbar_extension	lumbar_bending	lumbar_rotation	arm_flex_r	arm_add_r	arm_rot_r	elbow_flex_r	pro_sup_r	wrist_flex_r	wrist_dev_r	arm_flex_l	arm_add_l	arm_rot_l	elbow_flex_l	pro_sup_l	wrist_flex_l	wrist_dev_l
      5.00000000	     -7.26323708	      6.97273202	     89.99213867	      0.45150778	      0.81142320	     -0.67752032	     23.06172042	     29.98706166	     39.94312253	     48.79042579	      0.85155357	      0.66157548	      0.00000000	      0.00000000	    -29.40426202	      0.01855549	    -39.98225761	      0.02613970	      0.00045622	     30.73233529	      0.00000000	      0.00000000	    -62.04641698	    -89.98186699	     18.97309944	     73.25662320	     12.17770228	      9.37430860	      9.31439468	     16.52118386	      0.00000000	      0.00000000	     69.62811705	    -17.34964020	     12.84860989	     10.02762797	     20.66177704	      0.00000000	      0.00000000
      5.00500000	     -7.23193900	      6.98302756	     89.99213876	      0.45135242	      0.81162066	     -0.67754240	     23.04550846	     29.98706507	     39.94305232	     48.75285170	      0.85089778	      0.63474114	      0.00000000	      0.00000000	    -29.40755388	      0.00559913	    -39.98227012	      0.02613658	      0.00045617	     30.69497288	      0.00000000	      0.00000000	    -62.35878491	    -89.98172937	     18.66387829	     73.24452761	     12.16880190	      9.37374453	      9.33972719	     16.80035277	      0.00000000	      0.00000000	     69.61136365	    -17.37335802	     12.90390331	     10.05045644	     20.84455779	      0.00000000	      0.00000000
      5.01000000	     -7.19101028	      6.98682963	     89.99213951	      0.45120290	      0.81182034	     -0.67756481	     23.01797233	     29.98707105	     39.94300119	     48.67239762	      0.84949359	      0.60614142	      0.00000000	      0.00000000	    -29.40856605	     -0.01900387	    -39.98227636	      0.02614116	      0.00045625	     30.67024542	      0.00000000	      0.00000000	    -62.69750955	    -89.98158173	     18.34909072	     73.27453628	     12.16142834	      9.37255861	      9.29953237	     17.06789537	      0.00000000	      0.00000000	     69.62712761	    -17.35710249	     12.96854828	     10.02926476	     21.02444502	      0.00000000	      0.00000000
      5.01500000	     -7.14920401	      6.98482096	     89.99213883	      0.45104798	      0.81202061	     -0.67756247	     22.99899937	     29.98707895	     39.94297499	     48.59692219	      0.84817630	      0.57557043	      0.00000000	      0.00000000	    -29.40175255	     -0.04360919	    -39.98228341	      0.02613940	      0.00045622	     30.64563261	      0.00000000	      0.00000000	    -62.99499527	    -89.98144587	     18.01397326	     73.30651629	     12.18786012	      9.37503731	      9.27348451	     17.31203786	      0.00000000	      0.00000000	     69.60956645	    -17.43225539	     13.04345222	      9.97539319	     21.18588470	      0.00000000	      0.00000000
      5.02000000	     -7.12014234	      6.98708494	     89.99213542	      0.45093027	      0.81220349	     -0.67760427	     22.98611983	     29.98708293	     39.94284710	     48.55242685	      0.84739971	      0.53455522	      0.00000000	      0.00000000	    -29.40309980	     -0.05777549	    -39.98229183	      0.02612742	      0.00045601	     30.62657753	      0.00000000	      0.00000000	    -63.31894597	    -89.98128936	     17.69098578	     73.34373539	     12.20813338	      9.37998074	      9.21702473	     17.50663971	      0.00000000	      0.00000000	     69.63485029	    -17.42322022	     13.10027691	      9.94709016	     21.31689600	      0.00000000	      0.00000000
